<?xml version="1.0" standalone="no"?>
<!DOCTYPE svg PUBLIC "-//W3C//DTD SVG 20010904//EN"
 "http://www.w3.org/TR/2001/REC-SVG-20010904/DTD/svg10.dtd">
<svg version="1.0" xmlns="http://www.w3.org/2000/svg"
 width="2287.000000pt" height="2287.000000pt" viewBox="0 0 2287.000000 2287.000000"
 preserveAspectRatio="xMidYMid meet">
<metadata>
Created by potrace 1.14, written by Peter Selinger 2001-2017
</metadata>
<g transform="translate(0.000000,2287.000000) scale(0.100000,-0.100000)"
fill="#000000" stroke="none">
<path d="M17996 22843 c-2 -3 -19 -8 -38 -13 -18 -4 -94 -25 -168 -45 -258
-70 -315 -85 -344 -90 -16 -3 -33 -8 -38 -11 -4 -3 -17 -7 -27 -9 -11 -2 -53
-13 -93 -24 -40 -11 -107 -29 -148 -40 -41 -10 -169 -45 -285 -76 -283 -76
-710 -191 -820 -220 -49 -13 -106 -28 -125 -34 -19 -6 -46 -13 -60 -16 -14 -3
-133 -34 -265 -70 -132 -36 -247 -68 -255 -69 -8 -2 -42 -11 -75 -20 -33 -9
-67 -18 -75 -20 -8 -2 -42 -11 -75 -20 -33 -9 -67 -18 -76 -20 -8 -2 -76 -20
-150 -40 -192 -52 -233 -63 -339 -92 -52 -14 -102 -27 -110 -29 -8 -2 -109
-29 -225 -60 -115 -31 -302 -81 -415 -111 -113 -31 -245 -67 -295 -80 -49 -14
-99 -27 -110 -29 -11 -3 -121 -32 -245 -66 -252 -68 -438 -118 -460 -123 -8
-2 -42 -11 -75 -20 -33 -9 -69 -19 -80 -21 -11 -3 -69 -19 -130 -35 -60 -17
-117 -33 -125 -34 -32 -8 -269 -71 -570 -153 -173 -46 -323 -86 -333 -88 -10
-2 -27 -7 -37 -10 -10 -3 -27 -8 -37 -10 -10 -2 -52 -14 -93 -25 -41 -11 -82
-22 -91 -24 -8 -2 -73 -20 -145 -39 -171 -47 -443 -119 -809 -217 -165 -44
-316 -85 -335 -91 -19 -5 -44 -12 -55 -14 -11 -2 -20 -4 -20 -5 0 -1 -7 -3
-15 -5 -22 -5 -185 -48 -340 -90 -74 -20 -142 -39 -150 -41 -8 -1 -116 -30
-240 -64 -124 -34 -232 -63 -240 -64 -8 -2 -59 -16 -113 -31 -53 -14 -105 -28
-115 -30 -9 -2 -91 -24 -182 -49 -91 -24 -208 -56 -260 -70 -52 -14 -171 -46
-265 -71 -93 -25 -177 -48 -185 -50 -8 -2 -100 -26 -205 -54 -104 -29 -197
-53 -205 -55 -8 -2 -67 -18 -130 -36 -63 -17 -123 -33 -133 -35 -10 -2 -27 -7
-37 -10 -10 -3 -27 -8 -38 -10 -10 -2 -50 -12 -88 -23 -66 -19 -116 -32 -140
-38 -7 -1 -70 -18 -140 -37 -184 -51 -472 -128 -492 -132 -9 -2 -116 -30 -237
-63 -121 -33 -375 -102 -565 -152 -190 -50 -374 -100 -410 -110 -102 -29 -448
-121 -477 -126 -15 -3 -30 -7 -35 -10 -4 -3 -16 -7 -25 -9 -10 -2 -103 -27
-208 -55 -104 -28 -242 -65 -305 -81 -63 -17 -155 -42 -205 -56 -49 -14 -98
-26 -108 -28 -9 -2 -129 -34 -265 -70 -136 -37 -364 -98 -507 -137 -143 -38
-316 -85 -385 -103 -312 -85 -916 -247 -930 -250 -8 -2 -177 -47 -375 -100
-198 -53 -367 -98 -375 -100 -8 -2 -82 -22 -165 -45 -82 -22 -157 -42 -165
-44 -102 -26 -149 -38 -170 -45 -14 -5 -44 -14 -67 -20 l-41 -11 35 -128 c19
-70 45 -167 58 -217 13 -49 33 -126 45 -170 12 -44 28 -104 36 -133 7 -28 21
-78 29 -110 8 -31 17 -64 19 -72 2 -8 32 -118 66 -245 34 -126 72 -268 85
-315 12 -47 37 -139 54 -205 18 -66 34 -127 36 -135 2 -8 27 -100 55 -205 29
-104 54 -197 55 -205 6 -24 114 -430 130 -485 12 -42 111 -407 119 -440 8 -32
22 -86 57 -215 22 -80 55 -206 75 -280 19 -74 39 -148 44 -165 5 -16 20 -73
34 -125 13 -52 50 -189 81 -304 31 -114 58 -217 60 -228 3 -12 9 -35 14 -52 9
-27 66 -235 75 -276 2 -8 22 -82 44 -165 23 -82 50 -186 62 -230 12 -44 27
-102 35 -130 25 -93 67 -250 70 -265 2 -8 14 -49 25 -90 12 -41 23 -82 25 -90
3 -14 33 -127 56 -210 5 -19 11 -42 13 -51 16 -65 128 -481 136 -506 6 -18 13
-40 15 -50 4 -20 34 -133 60 -228 9 -33 18 -67 20 -75 9 -43 37 -149 46 -175
8 -25 142 -523 155 -577 5 -22 7 -29 38 -143 13 -49 36 -135 51 -190 14 -55
67 -251 116 -435 50 -184 99 -369 110 -410 11 -41 29 -108 40 -148 11 -40 22
-81 24 -90 2 -9 27 -102 55 -207 29 -104 53 -197 55 -205 2 -8 18 -67 35 -130
17 -63 37 -137 45 -165 7 -27 61 -230 120 -450 59 -220 109 -406 111 -415 2
-8 22 -82 44 -165 47 -174 49 -178 54 -205 3 -11 7 -24 10 -28 3 -5 7 -19 10
-33 2 -13 18 -76 35 -139 47 -175 91 -337 111 -415 19 -73 52 -195 96 -355 14
-52 30 -111 34 -130 5 -19 45 -170 89 -335 45 -165 83 -307 85 -315 1 -8 10
-40 19 -70 8 -30 32 -118 52 -195 20 -77 41 -153 46 -170 5 -16 41 -149 80
-295 38 -146 82 -308 96 -360 14 -52 27 -102 29 -110 2 -8 22 -82 44 -165 22
-82 43 -157 44 -165 2 -8 36 -134 76 -280 39 -146 87 -323 105 -395 19 -71 46
-173 61 -225 14 -52 34 -126 44 -165 10 -38 31 -119 48 -180 16 -60 48 -180
72 -265 23 -85 45 -171 50 -190 5 -19 24 -93 44 -165 64 -238 247 -920 252
-938 7 -29 12 -47 59 -222 25 -93 61 -228 80 -300 19 -72 46 -172 60 -222 14
-51 36 -134 49 -184 14 -50 26 -93 28 -95 3 -2 20 1 39 7 38 11 58 17 90 24
12 2 63 16 113 30 50 14 116 32 146 40 179 47 249 66 280 75 40 12 298 80 320
85 8 2 49 13 90 25 41 11 83 23 92 25 24 5 356 93 403 107 22 6 45 13 50 14 6
1 80 21 165 44 215 58 302 81 320 85 8 2 80 21 160 43 80 22 208 56 285 77 77
20 172 46 210 57 39 10 77 21 85 23 41 9 149 37 175 46 27 8 326 88 525 140
41 11 100 27 130 35 30 9 62 17 70 19 8 2 76 20 150 40 74 20 142 38 150 40 8
2 65 17 125 34 61 16 220 59 355 96 135 36 295 79 356 95 61 17 121 33 134 35
13 2 44 11 69 19 25 8 78 22 116 32 39 9 140 36 225 60 86 23 167 45 180 48
14 3 124 32 245 65 121 32 288 77 370 99 83 22 186 50 230 62 44 12 87 24 95
26 17 4 46 12 165 44 110 30 762 204 860 230 232 62 604 161 635 170 51 15
222 60 245 65 11 3 61 16 110 30 113 31 478 129 690 184 88 23 171 46 185 51
14 4 72 20 130 35 58 15 146 39 195 52 50 14 98 26 108 28 9 2 65 17 125 34
102 28 290 79 322 87 8 2 58 15 110 29 52 14 102 27 110 29 34 9 289 77 335
90 43 13 673 181 715 192 8 2 49 13 90 24 41 11 83 23 94 25 10 2 44 12 75 21
31 9 64 18 73 19 10 2 119 31 243 65 124 34 233 63 243 65 9 2 51 14 92 25 41
11 82 22 90 25 8 2 33 8 55 13 22 6 92 25 155 42 63 18 122 33 130 35 8 2 134
36 280 75 146 39 272 73 280 75 8 2 124 33 257 69 134 36 253 68 265 70 13 3
140 37 283 76 143 39 270 73 281 76 12 2 59 15 105 28 46 14 129 36 184 50 55
14 143 37 195 51 52 15 145 39 205 55 61 17 178 48 260 70 166 45 372 100 395
106 8 2 49 13 90 24 41 11 82 22 90 24 50 13 376 101 434 118 38 11 78 21 88
23 20 4 440 116 588 157 146 40 208 57 500 134 162 42 298 80 302 83 4 4 3 24
-3 45 -6 21 -12 46 -14 55 -2 9 -18 68 -36 131 -17 63 -35 131 -39 150 -5 19
-23 87 -40 150 -18 63 -33 120 -34 125 -7 26 -23 85 -73 270 -30 110 -56 207
-58 215 -9 41 -88 338 -95 360 -5 14 -25 88 -45 165 -20 77 -51 196 -70 265
-40 143 -95 348 -100 370 -2 8 -15 56 -28 105 -35 131 -84 312 -101 375 -7 30
-51 192 -96 360 -45 168 -95 352 -110 410 -39 147 -76 284 -95 355 -9 33 -18
67 -20 75 -1 8 -9 35 -16 60 -7 25 -13 50 -15 55 -1 6 -12 46 -24 90 -12 44
-30 112 -40 150 -10 39 -30 113 -44 165 -15 52 -42 154 -61 225 -83 314 -105
397 -134 505 -17 63 -35 131 -41 150 -13 47 -43 158 -69 255 -12 44 -57 215
-102 380 -44 165 -91 342 -104 393 -13 50 -26 96 -29 100 -3 5 -8 24 -11 43
-3 19 -15 63 -25 99 -11 36 -38 135 -60 220 -23 85 -46 171 -51 190 -5 19 -11
43 -14 52 -2 10 -15 59 -29 110 -43 160 -68 252 -71 268 -2 8 -31 116 -65 240
-33 124 -62 232 -64 240 -6 22 -42 156 -61 225 -9 33 -18 67 -20 75 -7 33
-116 437 -125 467 -6 18 -13 41 -15 52 -2 10 -29 113 -59 227 -31 115 -81 301
-111 414 -30 113 -80 297 -111 410 -30 113 -57 213 -59 222 -2 9 -13 50 -24
90 -11 40 -29 107 -40 148 -11 41 -31 120 -46 175 -15 55 -28 105 -29 110 -2
6 -8 30 -15 55 -7 25 -15 52 -17 60 -2 8 -20 76 -40 150 -20 74 -49 182 -64
240 -15 58 -56 209 -90 335 -34 127 -64 241 -67 254 -2 14 -6 28 -9 33 -3 4
-7 16 -9 25 -5 24 -60 231 -130 488 -31 116 -58 215 -59 220 -2 6 -6 24 -11
40 -4 17 -28 104 -52 195 -24 91 -46 172 -48 180 -2 8 -20 76 -40 150 -20 74
-41 151 -45 170 -5 19 -16 62 -25 95 -9 33 -19 67 -21 75 -2 8 -11 42 -20 75
-9 33 -18 67 -19 75 -2 8 -27 98 -54 200 -28 102 -54 198 -56 214 -3 16 -8 32
-10 35 -2 3 -15 51 -30 106 -34 130 -63 237 -81 305 -9 30 -24 87 -34 125 -23
89 -54 205 -73 275 -23 81 -65 241 -97 360 -15 58 -39 148 -53 200 -63 234
-179 666 -182 680 -2 8 -22 83 -45 165 -23 83 -43 157 -45 165 -2 8 -13 51
-25 95 -11 44 -29 112 -40 150 -10 39 -32 120 -48 180 -45 169 -93 348 -97
365 -2 8 -29 107 -60 220 -31 113 -58 213 -60 223 -6 26 -105 397 -114 426 -6
22 -33 36 -45 24z"/>
</g>
</svg>
