<svg id="flattened" xmlns="http://www.w3.org/2000/svg" viewBox="0 0 548.31 548.31"><defs><style>.cls-1{fill:#161616;}.cls-2{fill:#db2323;}.cls-3{fill:#eaa239;}</style></defs><rect class="cls-1" x="76.15" y="76.34" width="447.69" height="447.69" transform="matrix(0.97, -0.26, 0.26, 0.97, -93.32, 61.84)"/><path class="cls-2" d="M310.86,188.85h-47l-9,22.78H231L276,105.33h23.12l45.23,106.3H319.82Zm-7.37-18.68-16-40.7-16,40.7Z" transform="translate(-25.85 -26.03)"/><path class="cls-3" d="M418.32,321.3q5.35,0,12.47,5.08l6-10.39c-4.93-3.85-11.12-5.89-18.53-6.17V321.3Z" transform="translate(-25.85 -26.03)"/><path class="cls-2" d="M193.87,238.79a35.22,35.22,0,0,1,15.25,13.37q5.34,8.66,5.34,20.5a38.36,38.36,0,0,1-5.34,20.42,34.52,34.52,0,0,1-15.25,13.36q-9.9,4.63-23.33,4.64H150.16v29.3H126.75V234.09h43.79Q184,234.09,193.87,238.79Zm-8.6,47.46q5.49-4.78,5.49-13.59,0-9-5.49-13.75t-16-4.78H150.16V291h19.07Q179.79,291,185.27,286.25Z" transform="translate(-25.85 -26.03)"/><path class="cls-2" d="M323.13,340.38,323,276.6l-29.76,52.55H282.67L253.05,278v62.41h-22V234.09h19.36l37.86,66,37.28-66H344.8l.29,106.29Z" transform="translate(-25.85 -26.03)"/><path class="cls-2" d="M389.52,335.15a51.36,51.36,0,0,1-19.65-19.59,59.68,59.68,0,0,1,0-56.65,51.36,51.36,0,0,1,19.65-19.59,60,60,0,0,1,51.88-2.2,48,48,0,0,1,17.85,14l-15,14.58Q434,253.22,418.78,253.22A32.45,32.45,0,0,0,402,257.55a30,30,0,0,0-11.48,12.07,39.72,39.72,0,0,0,0,35.23A30,30,0,0,0,402,316.92a32.45,32.45,0,0,0,16.76,4.33q15.18,0,25.44-12.6l15,14.57a47.13,47.13,0,0,1-17.92,14.13,57,57,0,0,1-23.84,4.86A55.94,55.94,0,0,1,389.52,335.15Z" transform="translate(-25.85 -26.03)"/><path class="cls-3" d="M420,383.42q-15.66,0-15.66-15.47a18.8,18.8,0,0,1,1.56-7.58h-15.3a30.06,30.06,0,0,0-1.07,8q0,12.92,6.92,20.27T416.1,396c1.32,0,2.61-.05,3.88-.13V383.42Z" transform="translate(-25.85 -26.03)"/><path class="cls-2" d="M389.59,465.21a51.52,51.52,0,0,1-19.79-19.67,59,59,0,0,1,0-56.34,51.56,51.56,0,0,1,19.79-19.66,59.89,59.89,0,0,1,56.72,0,52.28,52.28,0,0,1,19.8,19.66,58.56,58.56,0,0,1,0,56.34,52.23,52.23,0,0,1-19.8,19.67,59.89,59.89,0,0,1-56.72,0Zm44.58-18.15A30.38,30.38,0,0,0,445.52,435a39.8,39.8,0,0,0,0-35.23,30.38,30.38,0,0,0-11.35-12.07,32.41,32.41,0,0,0-32.37,0,30.42,30.42,0,0,0-11.34,12.07,39.72,39.72,0,0,0,0,35.23,30.42,30.42,0,0,0,11.34,12.07,32.41,32.41,0,0,0,32.37,0Z" transform="translate(-25.85 -26.03)"/><path class="cls-3" d="M451.18,383.42c-2.78,0-4.75-.81-5.93-2.43s-1.76-4.61-1.76-9V355.5h14.18V343.45H443.49v-15l-14.24,5.32v9.53h-18.9q-5.48-4.33-5.47-10.45a10.7,10.7,0,0,1,3.5-8.42q3.5-3.11,9.92-3.11l2.52-5.43-2.52-6.05c-.58,0-1.15-.06-1.75-.06q-11.73,0-18.82,6.46a20.27,20.27,0,0,0-7.09,15.53q0,8.5,7.35,16a28.27,28.27,0,0,0-7.42,12.64l6.85,3.06,8.45-3.06a20.47,20.47,0,0,1,3-4.87h20.38v20.56a30.44,30.44,0,0,0,.4,5.53c-2.31,1.22-5.54,1.83-9.67,1.83l-3.59,6.39,3.59,6.1a47.19,47.19,0,0,0,15.82-3.53A17.53,17.53,0,0,0,446.28,396,41.79,41.79,0,0,0,459,394.15v-12.5A19,19,0,0,1,451.18,383.42Z" transform="translate(-25.85 -26.03)"/></svg>